# xmcd
#
# Track frame offsets: 
#        150
#        18869
#        41069
#        62106
#        93236
#        114955
#        131849
#        156655
#        179843
#        210123
#        228087
#        260710
#        297200
#
# Disc length: 4379 seconds
#
# Revision: 0
# Processed by: cddbd v1.5.2PL0 Copyright (c) Steve Scherf et al.
# Submitted via: ExactAudioCopyFreeDBPlugin 1.0
#
DISCID=b711190d
DTITLE=Big Daddy Wilson - Live in Europe - From Bremen To Paris
DYEAR=2013
DGENRE=Blues
TTITLE0=I Got To Move
TTITLE1=John The Revelator
TTITLE2=Stranger
TTITLE3=Texas Boogie
TTITLE4=Baby's Coming Home Again 
TTITLE5=I Wanna Be Your Man
TTITLE6=Anna Mae
TTITLE7=Intercity Train
TTITLE8=Drop Down Here
TTITLE9=Show Dog
TTITLE10=Ain't No Slave
TTITLE11=Baby Don't Like
TTITLE12=True Love
EXTD=
EXTT0=
EXTT1=
EXTT2=
EXTT3=
EXTT4=
EXTT5=
EXTT6=
EXTT7=
EXTT8=
EXTT9=
EXTT10=
EXTT11=
EXTT12=
PLAYORDER=
